<svg width="440" height="206" viewBox="0 0 440 206" fill="none" xmlns="http://www.w3.org/2000/svg">
    <rect width="440" height="206" fill="#1D1D1D"/>
    <rect x="0.5" y="0.5" width="439" height="205" stroke="white" stroke-opacity="0.22"/>
    <path fill-rule="evenodd" clip-rule="evenodd" d="M49.7547 29.2748C49.7547 29.7402 49.5698 30.1865 49.2408 30.5156C48.9117 30.8446 48.4654 31.0295 48 31.0295C47.5347 31.0295 47.0884 30.8446 46.7593 30.5156C46.4302 30.1865 46.2454 29.7402 46.2454 29.2748V24.6665C41.2612 25.0329 36.5268 26.9912 32.74 30.2525L36.3707 33.8762C36.5335 34.039 36.6627 34.2324 36.7509 34.4452C36.839 34.658 36.8844 34.886 36.8844 35.1163C36.8844 35.3467 36.839 35.5747 36.7509 35.7875C36.6627 36.0003 36.5335 36.1936 36.3707 36.3565C36.2078 36.5194 36.0145 36.6486 35.8017 36.7367C35.5889 36.8248 35.3608 36.8702 35.1305 36.8702C34.9002 36.8702 34.6721 36.8248 34.4593 36.7367C34.2466 36.6486 34.0532 36.5194 33.8904 36.3565L30.2597 32.7305C26.9955 36.5088 25.0344 41.2377 24.6667 46.2172H29.282C29.5213 46.202 29.7611 46.2361 29.9867 46.3173C30.2123 46.3984 30.4189 46.5249 30.5937 46.689C30.7685 46.8531 30.9078 47.0513 31.0031 47.2713C31.0983 47.4914 31.1475 47.7286 31.1475 47.9683C31.1475 48.2081 31.0983 48.4453 31.0031 48.6653C30.9078 48.8854 30.7685 49.0835 30.5937 49.2476C30.4189 49.4117 30.2123 49.5383 29.9867 49.6194C29.7611 49.7006 29.5213 49.7346 29.282 49.7195H24.6667C25.0344 54.699 26.9955 59.4278 30.2597 63.2062L33.8904 59.5802C34.2198 59.2513 34.6662 59.0666 35.1317 59.0666C35.5972 59.0666 36.0436 59.2513 36.373 59.5802C36.536 59.7427 36.6653 59.9358 36.7535 60.1484C36.8417 60.3611 36.8871 60.589 36.8871 60.8192C36.8871 61.0494 36.8417 61.2773 36.7535 61.4899C36.6653 61.7025 36.536 61.8956 36.373 62.0582L32.74 65.6818C36.9834 69.3363 42.3999 71.3423 48 71.3332C53.6002 71.3423 59.0167 69.3363 63.26 65.6818L59.6294 62.0582C59.4664 61.8956 59.3371 61.7025 59.2489 61.4899C59.1606 61.2773 59.1152 61.0494 59.1152 60.8192C59.1152 60.589 59.1606 60.3611 59.2489 60.1484C59.3371 59.9358 59.4664 59.7427 59.6294 59.5802C59.9587 59.252 60.4046 59.0678 60.8695 59.0678C61.3344 59.0678 61.7804 59.252 62.1097 59.5802L65.7404 63.2038C69.0042 59.4262 70.9653 54.6982 71.3334 49.7195H66.718C66.4803 49.7318 66.2426 49.6955 66.0193 49.613C65.796 49.5305 65.5918 49.4034 65.4192 49.2395C65.2466 49.0756 65.1092 48.8782 65.0153 48.6595C64.9213 48.4408 64.8729 48.2052 64.8729 47.9672C64.8729 47.7291 64.9213 47.4936 65.0153 47.2748C65.1092 47.0561 65.2466 46.8588 65.4192 46.6949C65.5918 46.5309 65.796 46.4038 66.0193 46.3213C66.2426 46.2388 66.4803 46.2026 66.718 46.2148H71.3334C70.9651 41.2361 69.0041 36.5082 65.7404 32.7305L62.1097 36.3565C61.7811 36.6857 61.3352 36.8709 60.87 36.8714C60.4049 36.8718 59.9586 36.6874 59.6294 36.3588C59.3001 36.0302 59.1149 35.5843 59.1145 35.1192C59.1141 34.654 59.2984 34.2077 59.627 33.8785L63.2577 30.2525C59.4716 26.9916 54.738 25.0334 49.7547 24.6665V29.2748ZM43.6017 43.5782C42.9501 44.2286 42.4331 45.0011 42.0804 45.8515C41.7277 46.7019 41.5461 47.6135 41.5461 48.5342C41.5461 49.4548 41.7277 50.3664 42.0804 51.2169C42.4331 52.0673 42.9501 52.8398 43.6017 53.4902C44.6447 54.5308 46.8077 55.2588 49.0897 55.7605C52.5034 56.5072 54.209 56.8828 55.5694 55.5272C56.9274 54.1692 56.5517 52.4658 55.8027 49.0568C55.2987 46.7795 54.5707 44.6165 53.5277 43.5758C52.2105 42.2613 50.4256 41.523 48.5647 41.523C46.7038 41.523 44.9189 42.2636 43.6017 43.5782Z" fill="#A0FF00"/>
    <path d="M37.808 95.08L31.976 112H25.952L20.096 95.08H25.136L28.976 107.296L32.792 95.08H37.808ZM52.1377 105.112C52.1377 105.48 52.1137 105.848 52.0657 106.216H43.1617C43.2097 106.952 43.4097 107.504 43.7617 107.872C44.1297 108.224 44.5937 108.4 45.1537 108.4C45.9377 108.4 46.4977 108.048 46.8337 107.344H51.8497C51.6417 108.272 51.2337 109.104 50.6257 109.84C50.0337 110.56 49.2817 111.128 48.3697 111.544C47.4577 111.96 46.4497 112.168 45.3457 112.168C44.0177 112.168 42.8337 111.888 41.7937 111.328C40.7697 110.768 39.9617 109.968 39.3697 108.928C38.7937 107.888 38.5057 106.664 38.5057 105.256C38.5057 103.848 38.7937 102.632 39.3697 101.608C39.9457 100.568 40.7457 99.768 41.7697 99.208C42.8097 98.648 44.0017 98.368 45.3457 98.368C46.6737 98.368 47.8497 98.64 48.8737 99.184C49.8977 99.728 50.6977 100.512 51.2737 101.536C51.8497 102.544 52.1377 103.736 52.1377 105.112ZM47.3377 103.936C47.3377 103.36 47.1457 102.912 46.7617 102.592C46.3777 102.256 45.8977 102.088 45.3217 102.088C44.7457 102.088 44.2737 102.248 43.9057 102.568C43.5377 102.872 43.2977 103.328 43.1857 103.936H47.3377ZM58.7668 94.24V112H54.0628V94.24H58.7668ZM67.7096 112.168C66.3656 112.168 65.1576 111.888 64.0856 111.328C63.0296 110.768 62.1976 109.968 61.5896 108.928C60.9816 107.888 60.6776 106.664 60.6776 105.256C60.6776 103.864 60.9816 102.648 61.5896 101.608C62.2136 100.568 63.0536 99.768 64.1096 99.208C65.1816 98.648 66.3896 98.368 67.7336 98.368C69.0776 98.368 70.2776 98.648 71.3336 99.208C72.4056 99.768 73.2456 100.568 73.8536 101.608C74.4776 102.648 74.7896 103.864 74.7896 105.256C74.7896 106.648 74.4776 107.872 73.8536 108.928C73.2456 109.968 72.4056 110.768 71.3336 111.328C70.2616 111.888 69.0536 112.168 67.7096 112.168ZM67.7096 108.088C68.3656 108.088 68.9096 107.848 69.3416 107.368C69.7896 106.872 70.0136 106.168 70.0136 105.256C70.0136 104.344 69.7896 103.648 69.3416 103.168C68.9096 102.688 68.3736 102.448 67.7336 102.448C67.0936 102.448 66.5576 102.688 66.1256 103.168C65.6936 103.648 65.4776 104.344 65.4776 105.256C65.4776 106.184 65.6856 106.888 66.1016 107.368C66.5176 107.848 67.0536 108.088 67.7096 108.088ZM75.9354 105.256C75.9354 103.864 76.2234 102.648 76.7994 101.608C77.3754 100.568 78.1754 99.768 79.1994 99.208C80.2394 98.648 81.4234 98.368 82.7514 98.368C84.4634 98.368 85.9034 98.84 87.0714 99.784C88.2394 100.712 88.9914 102.016 89.3274 103.696H84.3354C84.0474 102.816 83.4874 102.376 82.6554 102.376C82.0634 102.376 81.5914 102.624 81.2394 103.12C80.9034 103.6 80.7354 104.312 80.7354 105.256C80.7354 106.2 80.9034 106.92 81.2394 107.416C81.5914 107.912 82.0634 108.16 82.6554 108.16C83.5034 108.16 84.0634 107.72 84.3354 106.84H89.3274C88.9914 108.504 88.2394 109.808 87.0714 110.752C85.9034 111.696 84.4634 112.168 82.7514 112.168C81.4234 112.168 80.2394 111.888 79.1994 111.328C78.1754 110.768 77.3754 109.968 76.7994 108.928C76.2234 107.888 75.9354 106.664 75.9354 105.256ZM93.6575 97.288C92.8255 97.288 92.1535 97.064 91.6415 96.616C91.1455 96.152 90.8975 95.576 90.8975 94.888C90.8975 94.184 91.1455 93.6 91.6415 93.136C92.1535 92.672 92.8255 92.44 93.6575 92.44C94.4735 92.44 95.1295 92.672 95.6255 93.136C96.1375 93.6 96.3935 94.184 96.3935 94.888C96.3935 95.576 96.1375 96.152 95.6255 96.616C95.1295 97.064 94.4735 97.288 93.6575 97.288ZM95.9855 98.536V112H91.2815V98.536H95.9855ZM106.608 107.992V112H104.568C101.128 112 99.4083 110.296 99.4083 106.888V102.448H97.7523V98.536H99.4083V95.272H104.136V98.536H106.584V102.448H104.136V106.96C104.136 107.328 104.216 107.592 104.376 107.752C104.552 107.912 104.84 107.992 105.24 107.992H106.608ZM123.262 98.536L114.718 118.408H109.606L112.822 111.424L107.302 98.536H112.534L115.366 106.168L118.102 98.536H123.262Z" fill="white"/>
    <path d="M28.892 149.444H23.654L22.754 152H20.612L25.094 139.472H27.47L31.952 152H29.792L28.892 149.444ZM28.316 147.77L26.282 141.956L24.23 147.77H28.316ZM33.2168 147.032C33.2168 146.012 33.4208 145.118 33.8288 144.35C34.2488 143.57 34.8248 142.97 35.5568 142.55C36.2888 142.13 37.1288 141.92 38.0768 141.92C39.2768 141.92 40.2668 142.208 41.0468 142.784C41.8388 143.348 42.3728 144.158 42.6488 145.214H40.4348C40.2548 144.722 39.9668 144.338 39.5708 144.062C39.1748 143.786 38.6768 143.648 38.0768 143.648C37.2368 143.648 36.5648 143.948 36.0608 144.548C35.5688 145.136 35.3228 145.964 35.3228 147.032C35.3228 148.1 35.5688 148.934 36.0608 149.534C36.5648 150.134 37.2368 150.434 38.0768 150.434C39.2648 150.434 40.0508 149.912 40.4348 148.868H42.6488C42.3608 149.876 41.8208 150.68 41.0288 151.28C40.2368 151.868 39.2528 152.162 38.0768 152.162C37.1288 152.162 36.2888 151.952 35.5568 151.532C34.8248 151.1 34.2488 150.5 33.8288 149.732C33.4208 148.952 33.2168 148.052 33.2168 147.032ZM44.0098 147.032C44.0098 146.012 44.2138 145.118 44.6218 144.35C45.0418 143.57 45.6178 142.97 46.3498 142.55C47.0818 142.13 47.9218 141.92 48.8698 141.92C50.0698 141.92 51.0598 142.208 51.8398 142.784C52.6318 143.348 53.1658 144.158 53.4418 145.214H51.2278C51.0478 144.722 50.7598 144.338 50.3638 144.062C49.9678 143.786 49.4698 143.648 48.8698 143.648C48.0298 143.648 47.3578 143.948 46.8538 144.548C46.3618 145.136 46.1158 145.964 46.1158 147.032C46.1158 148.1 46.3618 148.934 46.8538 149.534C47.3578 150.134 48.0298 150.434 48.8698 150.434C50.0578 150.434 50.8438 149.912 51.2278 148.868H53.4418C53.1538 149.876 52.6138 150.68 51.8218 151.28C51.0298 151.868 50.0458 152.162 48.8698 152.162C47.9218 152.162 47.0818 151.952 46.3498 151.532C45.6178 151.1 45.0418 150.5 44.6218 149.732C44.2138 148.952 44.0098 148.052 44.0098 147.032ZM64.5767 146.798C64.5767 147.17 64.5527 147.506 64.5047 147.806H56.9267C56.9867 148.598 57.2807 149.234 57.8087 149.714C58.3367 150.194 58.9847 150.434 59.7527 150.434C60.8567 150.434 61.6367 149.972 62.0927 149.048H64.3067C64.0067 149.96 63.4607 150.71 62.6687 151.298C61.8887 151.874 60.9167 152.162 59.7527 152.162C58.8047 152.162 57.9527 151.952 57.1967 151.532C56.4527 151.1 55.8647 150.5 55.4327 149.732C55.0127 148.952 54.8027 148.052 54.8027 147.032C54.8027 146.012 55.0067 145.118 55.4147 144.35C55.8347 143.57 56.4167 142.97 57.1607 142.55C57.9167 142.13 58.7807 141.92 59.7527 141.92C60.6887 141.92 61.5227 142.124 62.2547 142.532C62.9867 142.94 63.5567 143.516 63.9647 144.26C64.3727 144.992 64.5767 145.838 64.5767 146.798ZM62.4347 146.15C62.4227 145.394 62.1527 144.788 61.6247 144.332C61.0967 143.876 60.4427 143.648 59.6627 143.648C58.9547 143.648 58.3487 143.876 57.8447 144.332C57.3407 144.776 57.0407 145.382 56.9447 146.15H62.4347ZM68.6481 138.68V152H66.5961V138.68H68.6481ZM80.4322 146.798C80.4322 147.17 80.4082 147.506 80.3602 147.806H72.7822C72.8422 148.598 73.1362 149.234 73.6642 149.714C74.1922 150.194 74.8402 150.434 75.6082 150.434C76.7122 150.434 77.4922 149.972 77.9482 149.048H80.1622C79.8622 149.96 79.3162 150.71 78.5242 151.298C77.7442 151.874 76.7722 152.162 75.6082 152.162C74.6602 152.162 73.8082 151.952 73.0522 151.532C72.3082 151.1 71.7202 150.5 71.2882 149.732C70.8682 148.952 70.6582 148.052 70.6582 147.032C70.6582 146.012 70.8622 145.118 71.2702 144.35C71.6902 143.57 72.2722 142.97 73.0162 142.55C73.7722 142.13 74.6362 141.92 75.6082 141.92C76.5442 141.92 77.3782 142.124 78.1102 142.532C78.8422 142.94 79.4122 143.516 79.8202 144.26C80.2282 144.992 80.4322 145.838 80.4322 146.798ZM78.2902 146.15C78.2782 145.394 78.0082 144.788 77.4802 144.332C76.9522 143.876 76.2982 143.648 75.5182 143.648C74.8102 143.648 74.2042 143.876 73.7002 144.332C73.1962 144.776 72.8962 145.382 72.8002 146.15H78.2902ZM84.5036 143.522C84.8036 143.018 85.1996 142.628 85.6916 142.352C86.1956 142.064 86.7896 141.92 87.4736 141.92V144.044H86.9516C86.1476 144.044 85.5356 144.248 85.1156 144.656C84.7076 145.064 84.5036 145.772 84.5036 146.78V152H82.4516V142.082H84.5036V143.522ZM88.6758 146.996C88.6758 146 88.8798 145.118 89.2878 144.35C89.7078 143.582 90.2718 142.988 90.9798 142.568C91.6998 142.136 92.4918 141.92 93.3558 141.92C94.1358 141.92 94.8138 142.076 95.3898 142.388C95.9778 142.688 96.4458 143.066 96.7938 143.522V142.082H98.8638V152H96.7938V150.524C96.4458 150.992 95.9718 151.382 95.3718 151.694C94.7718 152.006 94.0878 152.162 93.3198 152.162C92.4678 152.162 91.6878 151.946 90.9798 151.514C90.2718 151.07 89.7078 150.458 89.2878 149.678C88.8798 148.886 88.6758 147.992 88.6758 146.996ZM96.7938 147.032C96.7938 146.348 96.6498 145.754 96.3618 145.25C96.0858 144.746 95.7198 144.362 95.2638 144.098C94.8078 143.834 94.3158 143.702 93.7878 143.702C93.2598 143.702 92.7678 143.834 92.3118 144.098C91.8558 144.35 91.4838 144.728 91.1958 145.232C90.9198 145.724 90.7818 146.312 90.7818 146.996C90.7818 147.68 90.9198 148.28 91.1958 148.796C91.4838 149.312 91.8558 149.708 92.3118 149.984C92.7798 150.248 93.2718 150.38 93.7878 150.38C94.3158 150.38 94.8078 150.248 95.2638 149.984C95.7198 149.72 96.0858 149.336 96.3618 148.832C96.6498 148.316 96.7938 147.716 96.7938 147.032ZM103.953 143.756V149.246C103.953 149.618 104.037 149.888 104.205 150.056C104.385 150.212 104.685 150.29 105.105 150.29H106.365V152H104.745C103.821 152 103.113 151.784 102.621 151.352C102.129 150.92 101.883 150.218 101.883 149.246V143.756H100.713V142.082H101.883V139.616H103.953V142.082H106.365V143.756H103.953ZM117.346 146.798C117.346 147.17 117.322 147.506 117.274 147.806H109.696C109.756 148.598 110.05 149.234 110.578 149.714C111.106 150.194 111.754 150.434 112.522 150.434C113.626 150.434 114.406 149.972 114.862 149.048H117.076C116.776 149.96 116.23 150.71 115.438 151.298C114.658 151.874 113.686 152.162 112.522 152.162C111.574 152.162 110.722 151.952 109.966 151.532C109.222 151.1 108.634 150.5 108.202 149.732C107.782 148.952 107.572 148.052 107.572 147.032C107.572 146.012 107.776 145.118 108.184 144.35C108.604 143.57 109.186 142.97 109.93 142.55C110.686 142.13 111.55 141.92 112.522 141.92C113.458 141.92 114.292 142.124 115.024 142.532C115.756 142.94 116.326 143.516 116.734 144.26C117.142 144.992 117.346 145.838 117.346 146.798ZM115.204 146.15C115.192 145.394 114.922 144.788 114.394 144.332C113.866 143.876 113.212 143.648 112.432 143.648C111.724 143.648 111.118 143.876 110.614 144.332C110.11 144.776 109.81 145.382 109.714 146.15H115.204ZM128.163 152.126C127.323 152.126 126.567 151.982 125.895 151.694C125.223 151.394 124.695 150.974 124.311 150.434C123.927 149.894 123.735 149.264 123.735 148.544H125.931C125.979 149.084 126.189 149.528 126.561 149.876C126.945 150.224 127.479 150.398 128.163 150.398C128.871 150.398 129.423 150.23 129.819 149.894C130.215 149.546 130.413 149.102 130.413 148.562C130.413 148.142 130.287 147.8 130.035 147.536C129.795 147.272 129.489 147.068 129.117 146.924C128.757 146.78 128.253 146.624 127.605 146.456C126.789 146.24 126.123 146.024 125.607 145.808C125.103 145.58 124.671 145.232 124.311 144.764C123.951 144.296 123.771 143.672 123.771 142.892C123.771 142.172 123.951 141.542 124.311 141.002C124.671 140.462 125.175 140.048 125.823 139.76C126.471 139.472 127.221 139.328 128.073 139.328C129.285 139.328 130.275 139.634 131.043 140.246C131.823 140.846 132.255 141.674 132.339 142.73H130.071C130.035 142.274 129.819 141.884 129.423 141.56C129.027 141.236 128.505 141.074 127.857 141.074C127.269 141.074 126.789 141.224 126.417 141.524C126.045 141.824 125.859 142.256 125.859 142.82C125.859 143.204 125.973 143.522 126.201 143.774C126.441 144.014 126.741 144.206 127.101 144.35C127.461 144.494 127.953 144.65 128.577 144.818C129.405 145.046 130.077 145.274 130.593 145.502C131.121 145.73 131.565 146.084 131.925 146.564C132.297 147.032 132.483 147.662 132.483 148.454C132.483 149.09 132.309 149.69 131.961 150.254C131.625 150.818 131.127 151.274 130.467 151.622C129.819 151.958 129.051 152.126 128.163 152.126ZM134.221 146.996C134.221 146 134.425 145.118 134.833 144.35C135.253 143.582 135.817 142.988 136.525 142.568C137.245 142.136 138.037 141.92 138.901 141.92C139.681 141.92 140.359 142.076 140.935 142.388C141.523 142.688 141.991 143.066 142.339 143.522V142.082H144.409V152H142.339V150.524C141.991 150.992 141.517 151.382 140.917 151.694C140.317 152.006 139.633 152.162 138.865 152.162C138.013 152.162 137.233 151.946 136.525 151.514C135.817 151.07 135.253 150.458 134.833 149.678C134.425 148.886 134.221 147.992 134.221 146.996ZM142.339 147.032C142.339 146.348 142.195 145.754 141.907 145.25C141.631 144.746 141.265 144.362 140.809 144.098C140.353 143.834 139.861 143.702 139.333 143.702C138.805 143.702 138.313 143.834 137.857 144.098C137.401 144.35 137.029 144.728 136.741 145.232C136.465 145.724 136.327 146.312 136.327 146.996C136.327 147.68 136.465 148.28 136.741 148.796C137.029 149.312 137.401 149.708 137.857 149.984C138.325 150.248 138.817 150.38 139.333 150.38C139.861 150.38 140.353 150.248 140.809 149.984C141.265 149.72 141.631 149.336 141.907 148.832C142.195 148.316 142.339 147.716 142.339 147.032ZM149.156 138.68V152H147.104V138.68H149.156ZM160.94 146.798C160.94 147.17 160.916 147.506 160.868 147.806H153.29C153.35 148.598 153.644 149.234 154.172 149.714C154.7 150.194 155.348 150.434 156.116 150.434C157.22 150.434 158 149.972 158.456 149.048H160.67C160.37 149.96 159.824 150.71 159.032 151.298C158.252 151.874 157.28 152.162 156.116 152.162C155.168 152.162 154.316 151.952 153.56 151.532C152.816 151.1 152.228 150.5 151.796 149.732C151.376 148.952 151.166 148.052 151.166 147.032C151.166 146.012 151.37 145.118 151.778 144.35C152.198 143.57 152.78 142.97 153.524 142.55C154.28 142.13 155.144 141.92 156.116 141.92C157.052 141.92 157.886 142.124 158.618 142.532C159.35 142.94 159.92 143.516 160.328 144.26C160.736 144.992 160.94 145.838 160.94 146.798ZM158.798 146.15C158.786 145.394 158.516 144.788 157.988 144.332C157.46 143.876 156.806 143.648 156.026 143.648C155.318 143.648 154.712 143.876 154.208 144.332C153.704 144.776 153.404 145.382 153.308 146.15H158.798ZM166.559 152.162C165.779 152.162 165.077 152.024 164.453 151.748C163.841 151.46 163.355 151.076 162.995 150.596C162.635 150.104 162.443 149.558 162.419 148.958H164.543C164.579 149.378 164.777 149.732 165.137 150.02C165.509 150.296 165.971 150.434 166.523 150.434C167.099 150.434 167.543 150.326 167.855 150.11C168.179 149.882 168.341 149.594 168.341 149.246C168.341 148.874 168.161 148.598 167.801 148.418C167.453 148.238 166.895 148.04 166.127 147.824C165.383 147.62 164.777 147.422 164.309 147.23C163.841 147.038 163.433 146.744 163.085 146.348C162.749 145.952 162.581 145.43 162.581 144.782C162.581 144.254 162.737 143.774 163.049 143.342C163.361 142.898 163.805 142.55 164.381 142.298C164.969 142.046 165.641 141.92 166.397 141.92C167.525 141.92 168.431 142.208 169.115 142.784C169.811 143.348 170.183 144.122 170.231 145.106H168.179C168.143 144.662 167.963 144.308 167.639 144.044C167.315 143.78 166.877 143.648 166.325 143.648C165.785 143.648 165.371 143.75 165.083 143.954C164.795 144.158 164.651 144.428 164.651 144.764C164.651 145.028 164.747 145.25 164.939 145.43C165.131 145.61 165.365 145.754 165.641 145.862C165.917 145.958 166.325 146.084 166.865 146.24C167.585 146.432 168.173 146.63 168.629 146.834C169.097 147.026 169.499 147.314 169.835 147.698C170.171 148.082 170.345 148.592 170.357 149.228C170.357 149.792 170.201 150.296 169.889 150.74C169.577 151.184 169.133 151.532 168.557 151.784C167.993 152.036 167.327 152.162 166.559 152.162ZM190.57 142.082L187.492 152H185.332L183.334 144.674L181.336 152H179.176L176.08 142.082H178.168L180.238 150.056L182.344 142.082H184.486L186.502 150.02L188.554 142.082H190.57ZM193.148 140.768C192.776 140.768 192.464 140.642 192.212 140.39C191.96 140.138 191.834 139.826 191.834 139.454C191.834 139.082 191.96 138.77 192.212 138.518C192.464 138.266 192.776 138.14 193.148 138.14C193.508 138.14 193.814 138.266 194.066 138.518C194.318 138.77 194.444 139.082 194.444 139.454C194.444 139.826 194.318 140.138 194.066 140.39C193.814 140.642 193.508 140.768 193.148 140.768ZM194.156 142.082V152H192.104V142.082H194.156ZM199.244 143.756V149.246C199.244 149.618 199.328 149.888 199.496 150.056C199.676 150.212 199.976 150.29 200.396 150.29H201.656V152H200.036C199.112 152 198.404 151.784 197.912 151.352C197.42 150.92 197.174 150.218 197.174 149.246V143.756H196.004V142.082H197.174V139.616H199.244V142.082H201.656V143.756H199.244ZM208.677 141.92C209.433 141.92 210.105 142.082 210.693 142.406C211.293 142.73 211.761 143.21 212.097 143.846C212.445 144.482 212.619 145.25 212.619 146.15V152H210.585V146.456C210.585 145.568 210.363 144.89 209.919 144.422C209.475 143.942 208.869 143.702 208.101 143.702C207.333 143.702 206.721 143.942 206.265 144.422C205.821 144.89 205.599 145.568 205.599 146.456V152H203.547V138.68H205.599V143.234C205.947 142.814 206.385 142.49 206.913 142.262C207.453 142.034 208.041 141.92 208.677 141.92ZM224.035 152.126C223.195 152.126 222.439 151.982 221.767 151.694C221.095 151.394 220.567 150.974 220.183 150.434C219.799 149.894 219.607 149.264 219.607 148.544H221.803C221.851 149.084 222.061 149.528 222.433 149.876C222.817 150.224 223.351 150.398 224.035 150.398C224.743 150.398 225.295 150.23 225.691 149.894C226.087 149.546 226.285 149.102 226.285 148.562C226.285 148.142 226.159 147.8 225.907 147.536C225.667 147.272 225.361 147.068 224.989 146.924C224.629 146.78 224.125 146.624 223.477 146.456C222.661 146.24 221.995 146.024 221.479 145.808C220.975 145.58 220.543 145.232 220.183 144.764C219.823 144.296 219.643 143.672 219.643 142.892C219.643 142.172 219.823 141.542 220.183 141.002C220.543 140.462 221.047 140.048 221.695 139.76C222.343 139.472 223.093 139.328 223.945 139.328C225.157 139.328 226.147 139.634 226.915 140.246C227.695 140.846 228.127 141.674 228.211 142.73H225.943C225.907 142.274 225.691 141.884 225.295 141.56C224.899 141.236 224.377 141.074 223.729 141.074C223.141 141.074 222.661 141.224 222.289 141.524C221.917 141.824 221.731 142.256 221.731 142.82C221.731 143.204 221.845 143.522 222.073 143.774C222.313 144.014 222.613 144.206 222.973 144.35C223.333 144.494 223.825 144.65 224.449 144.818C225.277 145.046 225.949 145.274 226.465 145.502C226.993 145.73 227.437 146.084 227.797 146.564C228.169 147.032 228.355 147.662 228.355 148.454C228.355 149.09 228.181 149.69 227.833 150.254C227.497 150.818 226.999 151.274 226.339 151.622C225.691 151.958 224.923 152.126 224.035 152.126ZM239.866 146.798C239.866 147.17 239.842 147.506 239.794 147.806H232.216C232.276 148.598 232.57 149.234 233.098 149.714C233.626 150.194 234.274 150.434 235.042 150.434C236.146 150.434 236.926 149.972 237.382 149.048H239.596C239.296 149.96 238.75 150.71 237.958 151.298C237.178 151.874 236.206 152.162 235.042 152.162C234.094 152.162 233.242 151.952 232.486 151.532C231.742 151.1 231.154 150.5 230.722 149.732C230.302 148.952 230.092 148.052 230.092 147.032C230.092 146.012 230.296 145.118 230.704 144.35C231.124 143.57 231.706 142.97 232.45 142.55C233.206 142.13 234.07 141.92 235.042 141.92C235.978 141.92 236.812 142.124 237.544 142.532C238.276 142.94 238.846 143.516 239.254 144.26C239.662 144.992 239.866 145.838 239.866 146.798ZM237.724 146.15C237.712 145.394 237.442 144.788 236.914 144.332C236.386 143.876 235.732 143.648 234.952 143.648C234.244 143.648 233.638 143.876 233.134 144.332C232.63 144.776 232.33 145.382 232.234 146.15H237.724ZM243.937 138.68V152H241.885V138.68H243.937ZM250.789 143.756H248.953V152H246.883V143.756H245.713V142.082H246.883V141.38C246.883 140.24 247.183 139.412 247.783 138.896C248.395 138.368 249.349 138.104 250.645 138.104V139.814C250.021 139.814 249.583 139.934 249.331 140.174C249.079 140.402 248.953 140.804 248.953 141.38V142.082H250.789V143.756ZM260.222 144.62V146.348H252.824V144.62H260.222ZM267.259 152.126C266.419 152.126 265.663 151.982 264.991 151.694C264.319 151.394 263.791 150.974 263.407 150.434C263.023 149.894 262.831 149.264 262.831 148.544H265.027C265.075 149.084 265.285 149.528 265.657 149.876C266.041 150.224 266.575 150.398 267.259 150.398C267.967 150.398 268.519 150.23 268.915 149.894C269.311 149.546 269.509 149.102 269.509 148.562C269.509 148.142 269.383 147.8 269.131 147.536C268.891 147.272 268.585 147.068 268.213 146.924C267.853 146.78 267.349 146.624 266.701 146.456C265.885 146.24 265.219 146.024 264.703 145.808C264.199 145.58 263.767 145.232 263.407 144.764C263.047 144.296 262.867 143.672 262.867 142.892C262.867 142.172 263.047 141.542 263.407 141.002C263.767 140.462 264.271 140.048 264.919 139.76C265.567 139.472 266.317 139.328 267.169 139.328C268.381 139.328 269.371 139.634 270.139 140.246C270.919 140.846 271.351 141.674 271.435 142.73H269.167C269.131 142.274 268.915 141.884 268.519 141.56C268.123 141.236 267.601 141.074 266.953 141.074C266.365 141.074 265.885 141.224 265.513 141.524C265.141 141.824 264.955 142.256 264.955 142.82C264.955 143.204 265.069 143.522 265.297 143.774C265.537 144.014 265.837 144.206 266.197 144.35C266.557 144.494 267.049 144.65 267.673 144.818C268.501 145.046 269.173 145.274 269.689 145.502C270.217 145.73 270.661 146.084 271.021 146.564C271.393 147.032 271.579 147.662 271.579 148.454C271.579 149.09 271.405 149.69 271.057 150.254C270.721 150.818 270.223 151.274 269.563 151.622C268.915 151.958 268.147 152.126 267.259 152.126ZM283.09 146.798C283.09 147.17 283.066 147.506 283.018 147.806H275.44C275.5 148.598 275.794 149.234 276.322 149.714C276.85 150.194 277.498 150.434 278.266 150.434C279.37 150.434 280.15 149.972 280.606 149.048H282.82C282.52 149.96 281.974 150.71 281.182 151.298C280.402 151.874 279.43 152.162 278.266 152.162C277.318 152.162 276.466 151.952 275.71 151.532C274.966 151.1 274.378 150.5 273.946 149.732C273.526 148.952 273.316 148.052 273.316 147.032C273.316 146.012 273.52 145.118 273.928 144.35C274.348 143.57 274.93 142.97 275.674 142.55C276.43 142.13 277.294 141.92 278.266 141.92C279.202 141.92 280.036 142.124 280.768 142.532C281.5 142.94 282.07 143.516 282.478 144.26C282.886 144.992 283.09 145.838 283.09 146.798ZM280.948 146.15C280.936 145.394 280.666 144.788 280.138 144.332C279.61 143.876 278.956 143.648 278.176 143.648C277.468 143.648 276.862 143.876 276.358 144.332C275.854 144.776 275.554 145.382 275.458 146.15H280.948ZM287.162 143.522C287.462 143.018 287.858 142.628 288.35 142.352C288.854 142.064 289.448 141.92 290.132 141.92V144.044H289.61C288.806 144.044 288.194 144.248 287.774 144.656C287.366 145.064 287.162 145.772 287.162 146.78V152H285.11V142.082H287.162V143.522ZM295.852 150.164L298.66 142.082H300.838L297.058 152H294.61L290.848 142.082H293.044L295.852 150.164ZM303.433 140.768C303.061 140.768 302.749 140.642 302.497 140.39C302.245 140.138 302.119 139.826 302.119 139.454C302.119 139.082 302.245 138.77 302.497 138.518C302.749 138.266 303.061 138.14 303.433 138.14C303.793 138.14 304.099 138.266 304.351 138.518C304.603 138.77 304.729 139.082 304.729 139.454C304.729 139.826 304.603 140.138 304.351 140.39C304.099 140.642 303.793 140.768 303.433 140.768ZM304.441 142.082V152H302.389V142.082H304.441ZM306.451 147.032C306.451 146.012 306.655 145.118 307.063 144.35C307.483 143.57 308.059 142.97 308.791 142.55C309.523 142.13 310.363 141.92 311.311 141.92C312.511 141.92 313.501 142.208 314.281 142.784C315.073 143.348 315.607 144.158 315.883 145.214H313.669C313.489 144.722 313.201 144.338 312.805 144.062C312.409 143.786 311.911 143.648 311.311 143.648C310.471 143.648 309.799 143.948 309.295 144.548C308.803 145.136 308.557 145.964 308.557 147.032C308.557 148.1 308.803 148.934 309.295 149.534C309.799 150.134 310.471 150.434 311.311 150.434C312.499 150.434 313.285 149.912 313.669 148.868H315.883C315.595 149.876 315.055 150.68 314.263 151.28C313.471 151.868 312.487 152.162 311.311 152.162C310.363 152.162 309.523 151.952 308.791 151.532C308.059 151.1 307.483 150.5 307.063 149.732C306.655 148.952 306.451 148.052 306.451 147.032ZM327.018 146.798C327.018 147.17 326.994 147.506 326.946 147.806H319.368C319.428 148.598 319.722 149.234 320.25 149.714C320.778 150.194 321.426 150.434 322.194 150.434C323.298 150.434 324.078 149.972 324.534 149.048H326.748C326.448 149.96 325.902 150.71 325.11 151.298C324.33 151.874 323.358 152.162 322.194 152.162C321.246 152.162 320.394 151.952 319.638 151.532C318.894 151.1 318.306 150.5 317.874 149.732C317.454 148.952 317.244 148.052 317.244 147.032C317.244 146.012 317.448 145.118 317.856 144.35C318.276 143.57 318.858 142.97 319.602 142.55C320.358 142.13 321.222 141.92 322.194 141.92C323.13 141.92 323.964 142.124 324.696 142.532C325.428 142.94 325.998 143.516 326.406 144.26C326.814 144.992 327.018 145.838 327.018 146.798ZM324.876 146.15C324.864 145.394 324.594 144.788 324.066 144.332C323.538 143.876 322.884 143.648 322.104 143.648C321.396 143.648 320.79 143.876 320.286 144.332C319.782 144.776 319.482 145.382 319.386 146.15H324.876ZM337.799 139.49C339.131 139.49 340.295 139.748 341.291 140.264C342.299 140.768 343.073 141.5 343.613 142.46C344.165 143.408 344.441 144.518 344.441 145.79C344.441 147.062 344.165 148.166 343.613 149.102C343.073 150.038 342.299 150.758 341.291 151.262C340.295 151.754 339.131 152 337.799 152H333.713V139.49H337.799ZM337.799 150.326C339.263 150.326 340.385 149.93 341.165 149.138C341.945 148.346 342.335 147.23 342.335 145.79C342.335 144.338 341.945 143.204 341.165 142.388C340.385 141.572 339.263 141.164 337.799 141.164H335.765V150.326H337.799ZM355.565 146.798C355.565 147.17 355.541 147.506 355.493 147.806H347.915C347.975 148.598 348.269 149.234 348.797 149.714C349.325 150.194 349.973 150.434 350.741 150.434C351.845 150.434 352.625 149.972 353.081 149.048H355.295C354.995 149.96 354.449 150.71 353.657 151.298C352.877 151.874 351.905 152.162 350.741 152.162C349.793 152.162 348.941 151.952 348.185 151.532C347.441 151.1 346.853 150.5 346.421 149.732C346.001 148.952 345.791 148.052 345.791 147.032C345.791 146.012 345.995 145.118 346.403 144.35C346.823 143.57 347.405 142.97 348.149 142.55C348.905 142.13 349.769 141.92 350.741 141.92C351.677 141.92 352.511 142.124 353.243 142.532C353.975 142.94 354.545 143.516 354.953 144.26C355.361 144.992 355.565 145.838 355.565 146.798ZM353.423 146.15C353.411 145.394 353.141 144.788 352.613 144.332C352.085 143.876 351.431 143.648 350.651 143.648C349.943 143.648 349.337 143.876 348.833 144.332C348.329 144.776 348.029 145.382 347.933 146.15H353.423ZM369.59 141.92C370.37 141.92 371.066 142.082 371.678 142.406C372.302 142.73 372.788 143.21 373.136 143.846C373.496 144.482 373.676 145.25 373.676 146.15V152H371.642V146.456C371.642 145.568 371.42 144.89 370.976 144.422C370.532 143.942 369.926 143.702 369.158 143.702C368.39 143.702 367.778 143.942 367.322 144.422C366.878 144.89 366.656 145.568 366.656 146.456V152H364.622V146.456C364.622 145.568 364.4 144.89 363.956 144.422C363.512 143.942 362.906 143.702 362.138 143.702C361.37 143.702 360.758 143.942 360.302 144.422C359.858 144.89 359.636 145.568 359.636 146.456V152H357.584V142.082H359.636V143.216C359.972 142.808 360.398 142.49 360.914 142.262C361.43 142.034 361.982 141.92 362.57 141.92C363.362 141.92 364.07 142.088 364.694 142.424C365.318 142.76 365.798 143.246 366.134 143.882C366.434 143.282 366.902 142.808 367.538 142.46C368.174 142.1 368.858 141.92 369.59 141.92ZM380.59 152.162C379.654 152.162 378.808 151.952 378.052 151.532C377.296 151.1 376.702 150.5 376.27 149.732C375.838 148.952 375.622 148.052 375.622 147.032C375.622 146.024 375.844 145.13 376.288 144.35C376.732 143.57 377.338 142.97 378.106 142.55C378.874 142.13 379.732 141.92 380.68 141.92C381.628 141.92 382.486 142.13 383.254 142.55C384.022 142.97 384.628 143.57 385.072 144.35C385.516 145.13 385.738 146.024 385.738 147.032C385.738 148.04 385.51 148.934 385.054 149.714C384.598 150.494 383.974 151.1 383.182 151.532C382.402 151.952 381.538 152.162 380.59 152.162ZM380.59 150.38C381.118 150.38 381.61 150.254 382.066 150.002C382.534 149.75 382.912 149.372 383.2 148.868C383.488 148.364 383.632 147.752 383.632 147.032C383.632 146.312 383.494 145.706 383.218 145.214C382.942 144.71 382.576 144.332 382.12 144.08C381.664 143.828 381.172 143.702 380.644 143.702C380.116 143.702 379.624 143.828 379.168 144.08C378.724 144.332 378.37 144.71 378.106 145.214C377.842 145.706 377.71 146.312 377.71 147.032C377.71 148.1 377.98 148.928 378.52 149.516C379.072 150.092 379.762 150.38 380.59 150.38ZM391.366 152.162C390.586 152.162 389.884 152.024 389.26 151.748C388.648 151.46 388.162 151.076 387.802 150.596C387.442 150.104 387.25 149.558 387.226 148.958H389.35C389.386 149.378 389.584 149.732 389.944 150.02C390.316 150.296 390.778 150.434 391.33 150.434C391.906 150.434 392.35 150.326 392.662 150.11C392.986 149.882 393.148 149.594 393.148 149.246C393.148 148.874 392.968 148.598 392.608 148.418C392.26 148.238 391.702 148.04 390.934 147.824C390.19 147.62 389.584 147.422 389.116 147.23C388.648 147.038 388.24 146.744 387.892 146.348C387.556 145.952 387.388 145.43 387.388 144.782C387.388 144.254 387.544 143.774 387.856 143.342C388.168 142.898 388.612 142.55 389.188 142.298C389.776 142.046 390.448 141.92 391.204 141.92C392.332 141.92 393.238 142.208 393.922 142.784C394.618 143.348 394.99 144.122 395.038 145.106H392.986C392.95 144.662 392.77 144.308 392.446 144.044C392.122 143.78 391.684 143.648 391.132 143.648C390.592 143.648 390.178 143.75 389.89 143.954C389.602 144.158 389.458 144.428 389.458 144.764C389.458 145.028 389.554 145.25 389.746 145.43C389.938 145.61 390.172 145.754 390.448 145.862C390.724 145.958 391.132 146.084 391.672 146.24C392.392 146.432 392.98 146.63 393.436 146.834C393.904 147.026 394.306 147.314 394.642 147.698C394.978 148.082 395.152 148.592 395.164 149.228C395.164 149.792 395.008 150.296 394.696 150.74C394.384 151.184 393.94 151.532 393.364 151.784C392.8 152.036 392.134 152.162 391.366 152.162ZM398.209 152.126C397.837 152.126 397.525 152 397.273 151.748C397.021 151.496 396.895 151.184 396.895 150.812C396.895 150.44 397.021 150.128 397.273 149.876C397.525 149.624 397.837 149.498 398.209 149.498C398.569 149.498 398.875 149.624 399.127 149.876C399.379 150.128 399.505 150.44 399.505 150.812C399.505 151.184 399.379 151.496 399.127 151.748C398.875 152 398.569 152.126 398.209 152.126ZM28.046 172.574C28.718 172.694 29.288 173.048 29.756 173.636C30.224 174.224 30.458 174.89 30.458 175.634C30.458 176.27 30.29 176.846 29.954 177.362C29.63 177.866 29.156 178.268 28.532 178.568C27.908 178.856 27.182 179 26.354 179H21.35V166.49H26.12C26.972 166.49 27.704 166.634 28.316 166.922C28.928 167.21 29.39 167.6 29.702 168.092C30.014 168.572 30.17 169.112 30.17 169.712C30.17 170.432 29.978 171.032 29.594 171.512C29.21 171.992 28.694 172.346 28.046 172.574ZM23.402 171.746H25.94C26.612 171.746 27.134 171.596 27.506 171.296C27.89 170.984 28.082 170.54 28.082 169.964C28.082 169.4 27.89 168.962 27.506 168.65C27.134 168.326 26.612 168.164 25.94 168.164H23.402V171.746ZM26.174 177.326C26.87 177.326 27.416 177.158 27.812 176.822C28.208 176.486 28.406 176.018 28.406 175.418C28.406 174.806 28.196 174.32 27.776 173.96C27.356 173.6 26.798 173.42 26.102 173.42H23.402V177.326H26.174ZM41.6699 169.082V179H39.6179V177.83C39.2939 178.238 38.8679 178.562 38.3399 178.802C37.8239 179.03 37.2719 179.144 36.6839 179.144C35.9039 179.144 35.2019 178.982 34.5779 178.658C33.9659 178.334 33.4799 177.854 33.1199 177.218C32.7719 176.582 32.5979 175.814 32.5979 174.914V169.082H34.6319V174.608C34.6319 175.496 34.8539 176.18 35.2979 176.66C35.7419 177.128 36.3479 177.362 37.1159 177.362C37.8839 177.362 38.4899 177.128 38.9339 176.66C39.3899 176.18 39.6179 175.496 39.6179 174.608V169.082H41.6699ZM53.3053 169.082L47.2213 183.662H45.0973L47.1133 178.838L43.2073 169.082H45.4933L48.2833 176.642L51.1813 169.082H53.3053ZM63.9439 173.798C63.9439 174.17 63.9199 174.506 63.8719 174.806H56.2939C56.3539 175.598 56.6479 176.234 57.1759 176.714C57.7039 177.194 58.3519 177.434 59.1199 177.434C60.2239 177.434 61.0039 176.972 61.4599 176.048H63.6739C63.3739 176.96 62.8279 177.71 62.0359 178.298C61.2559 178.874 60.2839 179.162 59.1199 179.162C58.1719 179.162 57.3199 178.952 56.5639 178.532C55.8199 178.1 55.2319 177.5 54.7999 176.732C54.3799 175.952 54.1699 175.052 54.1699 174.032C54.1699 173.012 54.3739 172.118 54.7819 171.35C55.2019 170.57 55.7839 169.97 56.5279 169.55C57.2839 169.13 58.1479 168.92 59.1199 168.92C60.0559 168.92 60.8899 169.124 61.6219 169.532C62.3539 169.94 62.9239 170.516 63.3319 171.26C63.7399 171.992 63.9439 172.838 63.9439 173.798ZM61.8019 173.15C61.7899 172.394 61.5199 171.788 60.9919 171.332C60.4639 170.876 59.8099 170.648 59.0299 170.648C58.3219 170.648 57.7159 170.876 57.2119 171.332C56.7079 171.776 56.4079 172.382 56.3119 173.15H61.8019ZM68.0153 170.522C68.3153 170.018 68.7113 169.628 69.2033 169.352C69.7073 169.064 70.3013 168.92 70.9853 168.92V171.044H70.4633C69.6593 171.044 69.0473 171.248 68.6273 171.656C68.2193 172.064 68.0153 172.772 68.0153 173.78V179H65.9633V169.082H68.0153V170.522ZM76.4715 179.162C75.6915 179.162 74.9895 179.024 74.3655 178.748C73.7535 178.46 73.2675 178.076 72.9075 177.596C72.5475 177.104 72.3555 176.558 72.3315 175.958H74.4555C74.4915 176.378 74.6895 176.732 75.0495 177.02C75.4215 177.296 75.8835 177.434 76.4355 177.434C77.0115 177.434 77.4555 177.326 77.7675 177.11C78.0915 176.882 78.2535 176.594 78.2535 176.246C78.2535 175.874 78.0735 175.598 77.7135 175.418C77.3655 175.238 76.8075 175.04 76.0395 174.824C75.2955 174.62 74.6895 174.422 74.2215 174.23C73.7535 174.038 73.3455 173.744 72.9975 173.348C72.6615 172.952 72.4935 172.43 72.4935 171.782C72.4935 171.254 72.6495 170.774 72.9615 170.342C73.2735 169.898 73.7175 169.55 74.2935 169.298C74.8815 169.046 75.5535 168.92 76.3095 168.92C77.4375 168.92 78.3435 169.208 79.0275 169.784C79.7235 170.348 80.0955 171.122 80.1435 172.106H78.0915C78.0555 171.662 77.8755 171.308 77.5515 171.044C77.2275 170.78 76.7895 170.648 76.2375 170.648C75.6975 170.648 75.2835 170.75 74.9955 170.954C74.7075 171.158 74.5635 171.428 74.5635 171.764C74.5635 172.028 74.6595 172.25 74.8515 172.43C75.0435 172.61 75.2775 172.754 75.5535 172.862C75.8295 172.958 76.2375 173.084 76.7775 173.24C77.4975 173.432 78.0855 173.63 78.5415 173.834C79.0095 174.026 79.4115 174.314 79.7475 174.698C80.0835 175.082 80.2575 175.592 80.2695 176.228C80.2695 176.792 80.1135 177.296 79.8015 177.74C79.4895 178.184 79.0455 178.532 78.4695 178.784C77.9055 179.036 77.2395 179.162 76.4715 179.162ZM103.453 166.49L99.7445 179H97.4225L94.7945 169.532L92.0045 179L89.7005 179.018L86.1545 166.49H88.3325L90.9245 176.678L93.7325 166.49H96.0365L98.6465 176.624L101.257 166.49H103.453ZM104.461 173.996C104.461 173 104.665 172.118 105.073 171.35C105.493 170.582 106.057 169.988 106.765 169.568C107.485 169.136 108.277 168.92 109.141 168.92C109.921 168.92 110.599 169.076 111.175 169.388C111.763 169.688 112.231 170.066 112.579 170.522V169.082H114.649V179H112.579V177.524C112.231 177.992 111.757 178.382 111.157 178.694C110.557 179.006 109.873 179.162 109.105 179.162C108.253 179.162 107.473 178.946 106.765 178.514C106.057 178.07 105.493 177.458 105.073 176.678C104.665 175.886 104.461 174.992 104.461 173.996ZM112.579 174.032C112.579 173.348 112.435 172.754 112.147 172.25C111.871 171.746 111.505 171.362 111.049 171.098C110.593 170.834 110.101 170.702 109.573 170.702C109.045 170.702 108.553 170.834 108.097 171.098C107.641 171.35 107.269 171.728 106.981 172.232C106.705 172.724 106.567 173.312 106.567 173.996C106.567 174.68 106.705 175.28 106.981 175.796C107.269 176.312 107.641 176.708 108.097 176.984C108.565 177.248 109.057 177.38 109.573 177.38C110.101 177.38 110.593 177.248 111.049 176.984C111.505 176.72 111.871 176.336 112.147 175.832C112.435 175.316 112.579 174.716 112.579 174.032ZM122.348 168.92C123.128 168.92 123.824 169.082 124.436 169.406C125.06 169.73 125.546 170.21 125.894 170.846C126.242 171.482 126.416 172.25 126.416 173.15V179H124.382V173.456C124.382 172.568 124.16 171.89 123.716 171.422C123.272 170.942 122.666 170.702 121.898 170.702C121.13 170.702 120.518 170.942 120.062 171.422C119.618 171.89 119.396 172.568 119.396 173.456V179H117.344V169.082H119.396V170.216C119.732 169.808 120.158 169.49 120.674 169.262C121.202 169.034 121.76 168.92 122.348 168.92ZM131.428 170.756V176.246C131.428 176.618 131.512 176.888 131.68 177.056C131.86 177.212 132.16 177.29 132.58 177.29H133.84V179H132.22C131.296 179 130.588 178.784 130.096 178.352C129.604 177.92 129.358 177.218 129.358 176.246V170.756H128.188V169.082H129.358V166.616H131.428V169.082H133.84V170.756H131.428ZM150.397 166.49V179H148.345V173.528H142.459V179H140.407V166.49H142.459V171.854H148.345V166.49H150.397ZM152.414 173.996C152.414 173 152.618 172.118 153.026 171.35C153.446 170.582 154.01 169.988 154.718 169.568C155.438 169.136 156.23 168.92 157.094 168.92C157.874 168.92 158.552 169.076 159.128 169.388C159.716 169.688 160.184 170.066 160.532 170.522V169.082H162.602V179H160.532V177.524C160.184 177.992 159.71 178.382 159.11 178.694C158.51 179.006 157.826 179.162 157.058 179.162C156.206 179.162 155.426 178.946 154.718 178.514C154.01 178.07 153.446 177.458 153.026 176.678C152.618 175.886 152.414 174.992 152.414 173.996ZM160.532 174.032C160.532 173.348 160.388 172.754 160.1 172.25C159.824 171.746 159.458 171.362 159.002 171.098C158.546 170.834 158.054 170.702 157.526 170.702C156.998 170.702 156.506 170.834 156.05 171.098C155.594 171.35 155.222 171.728 154.934 172.232C154.658 172.724 154.52 173.312 154.52 173.996C154.52 174.68 154.658 175.28 154.934 175.796C155.222 176.312 155.594 176.708 156.05 176.984C156.518 177.248 157.01 177.38 157.526 177.38C158.054 177.38 158.546 177.248 159.002 176.984C159.458 176.72 159.824 176.336 160.1 175.832C160.388 175.316 160.532 174.716 160.532 174.032ZM170.301 168.92C171.081 168.92 171.777 169.082 172.389 169.406C173.013 169.73 173.499 170.21 173.847 170.846C174.195 171.482 174.369 172.25 174.369 173.15V179H172.335V173.456C172.335 172.568 172.113 171.89 171.669 171.422C171.225 170.942 170.619 170.702 169.851 170.702C169.083 170.702 168.471 170.942 168.015 171.422C167.571 171.89 167.349 172.568 167.349 173.456V179H165.297V169.082H167.349V170.216C167.685 169.808 168.111 169.49 168.627 169.262C169.155 169.034 169.713 168.92 170.301 168.92ZM176.303 173.996C176.303 173 176.507 172.118 176.915 171.35C177.335 170.582 177.899 169.988 178.607 169.568C179.327 169.136 180.125 168.92 181.001 168.92C181.649 168.92 182.285 169.064 182.909 169.352C183.545 169.628 184.049 170 184.421 170.468V165.68H186.491V179H184.421V177.506C184.085 177.986 183.617 178.382 183.017 178.694C182.429 179.006 181.751 179.162 180.983 179.162C180.119 179.162 179.327 178.946 178.607 178.514C177.899 178.07 177.335 177.458 176.915 176.678C176.507 175.886 176.303 174.992 176.303 173.996ZM184.421 174.032C184.421 173.348 184.277 172.754 183.989 172.25C183.713 171.746 183.347 171.362 182.891 171.098C182.435 170.834 181.943 170.702 181.415 170.702C180.887 170.702 180.395 170.834 179.939 171.098C179.483 171.35 179.111 171.728 178.823 172.232C178.547 172.724 178.409 173.312 178.409 173.996C178.409 174.68 178.547 175.28 178.823 175.796C179.111 176.312 179.483 176.708 179.939 176.984C180.407 177.248 180.899 177.38 181.415 177.38C181.943 177.38 182.435 177.248 182.891 176.984C183.347 176.72 183.713 176.336 183.989 175.832C184.277 175.316 184.421 174.716 184.421 174.032ZM192.786 179.162C192.006 179.162 191.304 179.024 190.68 178.748C190.068 178.46 189.582 178.076 189.222 177.596C188.862 177.104 188.67 176.558 188.646 175.958H190.77C190.806 176.378 191.004 176.732 191.364 177.02C191.736 177.296 192.198 177.434 192.75 177.434C193.326 177.434 193.77 177.326 194.082 177.11C194.406 176.882 194.568 176.594 194.568 176.246C194.568 175.874 194.388 175.598 194.028 175.418C193.68 175.238 193.122 175.04 192.354 174.824C191.61 174.62 191.004 174.422 190.536 174.23C190.068 174.038 189.66 173.744 189.312 173.348C188.976 172.952 188.808 172.43 188.808 171.782C188.808 171.254 188.964 170.774 189.276 170.342C189.588 169.898 190.032 169.55 190.608 169.298C191.196 169.046 191.868 168.92 192.624 168.92C193.752 168.92 194.658 169.208 195.342 169.784C196.038 170.348 196.41 171.122 196.458 172.106H194.406C194.37 171.662 194.19 171.308 193.866 171.044C193.542 170.78 193.104 170.648 192.552 170.648C192.012 170.648 191.598 170.75 191.31 170.954C191.022 171.158 190.878 171.428 190.878 171.764C190.878 172.028 190.974 172.25 191.166 172.43C191.358 172.61 191.592 172.754 191.868 172.862C192.144 172.958 192.552 173.084 193.092 173.24C193.812 173.432 194.4 173.63 194.856 173.834C195.324 174.026 195.726 174.314 196.062 174.698C196.398 175.082 196.572 175.592 196.584 176.228C196.584 176.792 196.428 177.296 196.116 177.74C195.804 178.184 195.36 178.532 194.784 178.784C194.22 179.036 193.554 179.162 192.786 179.162ZM206.415 171.62V173.348H199.017V171.62H206.415ZM215.036 179.126C213.872 179.126 212.798 178.856 211.814 178.316C210.842 177.764 210.068 177.002 209.492 176.03C208.928 175.046 208.646 173.942 208.646 172.718C208.646 171.494 208.928 170.396 209.492 169.424C210.068 168.452 210.842 167.696 211.814 167.156C212.798 166.604 213.872 166.328 215.036 166.328C216.212 166.328 217.286 166.604 218.258 167.156C219.242 167.696 220.016 168.452 220.58 169.424C221.144 170.396 221.426 171.494 221.426 172.718C221.426 173.942 221.144 175.046 220.58 176.03C220.016 177.002 219.242 177.764 218.258 178.316C217.286 178.856 216.212 179.126 215.036 179.126ZM215.036 177.344C215.864 177.344 216.602 177.158 217.25 176.786C217.898 176.402 218.402 175.862 218.762 175.166C219.134 174.458 219.32 173.642 219.32 172.718C219.32 171.794 219.134 170.984 218.762 170.288C218.402 169.592 217.898 169.058 217.25 168.686C216.602 168.314 215.864 168.128 215.036 168.128C214.208 168.128 213.47 168.314 212.822 168.686C212.174 169.058 211.664 169.592 211.292 170.288C210.932 170.984 210.752 171.794 210.752 172.718C210.752 173.642 210.932 174.458 211.292 175.166C211.664 175.862 212.174 176.402 212.822 176.786C213.47 177.158 214.208 177.344 215.036 177.344ZM228.45 168.92C229.23 168.92 229.926 169.082 230.538 169.406C231.162 169.73 231.648 170.21 231.996 170.846C232.344 171.482 232.518 172.25 232.518 173.15V179H230.484V173.456C230.484 172.568 230.262 171.89 229.818 171.422C229.374 170.942 228.768 170.702 228 170.702C227.232 170.702 226.62 170.942 226.164 171.422C225.72 171.89 225.498 172.568 225.498 173.456V179H223.446V169.082H225.498V170.216C225.834 169.808 226.26 169.49 226.776 169.262C227.304 169.034 227.862 168.92 228.45 168.92ZM241.863 168.146V171.818H246.183V173.492H241.863V177.326H246.723V179H239.811V166.472H246.723V168.146H241.863ZM253.498 173.978L256.702 179H254.38L252.238 175.634L250.222 179H248.08L251.284 174.122L248.08 169.082H250.402L252.544 172.448L254.56 169.082H256.702L253.498 173.978ZM260.285 170.54C260.633 170.084 261.107 169.7 261.707 169.388C262.307 169.076 262.985 168.92 263.741 168.92C264.605 168.92 265.391 169.136 266.099 169.568C266.819 169.988 267.383 170.582 267.791 171.35C268.199 172.118 268.403 173 268.403 173.996C268.403 174.992 268.199 175.886 267.791 176.678C267.383 177.458 266.819 178.07 266.099 178.514C265.391 178.946 264.605 179.162 263.741 179.162C262.985 179.162 262.313 179.012 261.725 178.712C261.137 178.4 260.657 178.016 260.285 177.56V183.716H258.233V169.082H260.285V170.54ZM266.315 173.996C266.315 173.312 266.171 172.724 265.883 172.232C265.607 171.728 265.235 171.35 264.767 171.098C264.311 170.834 263.819 170.702 263.291 170.702C262.775 170.702 262.283 170.834 261.815 171.098C261.359 171.362 260.987 171.746 260.699 172.25C260.423 172.754 260.285 173.348 260.285 174.032C260.285 174.716 260.423 175.316 260.699 175.832C260.987 176.336 261.359 176.72 261.815 176.984C262.283 177.248 262.775 177.38 263.291 177.38C263.819 177.38 264.311 177.248 264.767 176.984C265.235 176.708 265.607 176.312 265.883 175.796C266.171 175.28 266.315 174.68 266.315 173.996ZM279.522 173.798C279.522 174.17 279.498 174.506 279.45 174.806H271.872C271.932 175.598 272.226 176.234 272.754 176.714C273.282 177.194 273.93 177.434 274.698 177.434C275.802 177.434 276.582 176.972 277.038 176.048H279.252C278.952 176.96 278.406 177.71 277.614 178.298C276.834 178.874 275.862 179.162 274.698 179.162C273.75 179.162 272.898 178.952 272.142 178.532C271.398 178.1 270.81 177.5 270.378 176.732C269.958 175.952 269.748 175.052 269.748 174.032C269.748 173.012 269.952 172.118 270.36 171.35C270.78 170.57 271.362 169.97 272.106 169.55C272.862 169.13 273.726 168.92 274.698 168.92C275.634 168.92 276.468 169.124 277.2 169.532C277.932 169.94 278.502 170.516 278.91 171.26C279.318 171.992 279.522 172.838 279.522 173.798ZM277.38 173.15C277.368 172.394 277.098 171.788 276.57 171.332C276.042 170.876 275.388 170.648 274.608 170.648C273.9 170.648 273.294 170.876 272.79 171.332C272.286 171.776 271.986 172.382 271.89 173.15H277.38ZM283.593 170.522C283.893 170.018 284.289 169.628 284.781 169.352C285.285 169.064 285.879 168.92 286.563 168.92V171.044H286.041C285.237 171.044 284.625 171.248 284.205 171.656C283.797 172.064 283.593 172.772 283.593 173.78V179H281.541V169.082H283.593V170.522ZM289.494 167.768C289.122 167.768 288.81 167.642 288.558 167.39C288.306 167.138 288.18 166.826 288.18 166.454C288.18 166.082 288.306 165.77 288.558 165.518C288.81 165.266 289.122 165.14 289.494 165.14C289.854 165.14 290.16 165.266 290.412 165.518C290.664 165.77 290.79 166.082 290.79 166.454C290.79 166.826 290.664 167.138 290.412 167.39C290.16 167.642 289.854 167.768 289.494 167.768ZM290.502 169.082V179H288.45V169.082H290.502ZM302.286 173.798C302.286 174.17 302.262 174.506 302.214 174.806H294.636C294.696 175.598 294.99 176.234 295.518 176.714C296.046 177.194 296.694 177.434 297.462 177.434C298.566 177.434 299.346 176.972 299.802 176.048H302.016C301.716 176.96 301.17 177.71 300.378 178.298C299.598 178.874 298.626 179.162 297.462 179.162C296.514 179.162 295.662 178.952 294.906 178.532C294.162 178.1 293.574 177.5 293.142 176.732C292.722 175.952 292.512 175.052 292.512 174.032C292.512 173.012 292.716 172.118 293.124 171.35C293.544 170.57 294.126 169.97 294.87 169.55C295.626 169.13 296.49 168.92 297.462 168.92C298.398 168.92 299.232 169.124 299.964 169.532C300.696 169.94 301.266 170.516 301.674 171.26C302.082 171.992 302.286 172.838 302.286 173.798ZM300.144 173.15C300.132 172.394 299.862 171.788 299.334 171.332C298.806 170.876 298.152 170.648 297.372 170.648C296.664 170.648 296.058 170.876 295.554 171.332C295.05 171.776 294.75 172.382 294.654 173.15H300.144ZM309.309 168.92C310.089 168.92 310.785 169.082 311.397 169.406C312.021 169.73 312.507 170.21 312.855 170.846C313.203 171.482 313.377 172.25 313.377 173.15V179H311.343V173.456C311.343 172.568 311.121 171.89 310.677 171.422C310.233 170.942 309.627 170.702 308.859 170.702C308.091 170.702 307.479 170.942 307.023 171.422C306.579 171.89 306.357 172.568 306.357 173.456V179H304.305V169.082H306.357V170.216C306.693 169.808 307.119 169.49 307.635 169.262C308.163 169.034 308.721 168.92 309.309 168.92ZM315.311 174.032C315.311 173.012 315.515 172.118 315.923 171.35C316.343 170.57 316.919 169.97 317.651 169.55C318.383 169.13 319.223 168.92 320.171 168.92C321.371 168.92 322.361 169.208 323.141 169.784C323.933 170.348 324.467 171.158 324.743 172.214H322.529C322.349 171.722 322.061 171.338 321.665 171.062C321.269 170.786 320.771 170.648 320.171 170.648C319.331 170.648 318.659 170.948 318.155 171.548C317.663 172.136 317.417 172.964 317.417 174.032C317.417 175.1 317.663 175.934 318.155 176.534C318.659 177.134 319.331 177.434 320.171 177.434C321.359 177.434 322.145 176.912 322.529 175.868H324.743C324.455 176.876 323.915 177.68 323.123 178.28C322.331 178.868 321.347 179.162 320.171 179.162C319.223 179.162 318.383 178.952 317.651 178.532C316.919 178.1 316.343 177.5 315.923 176.732C315.515 175.952 315.311 175.052 315.311 174.032ZM335.878 173.798C335.878 174.17 335.854 174.506 335.806 174.806H328.228C328.288 175.598 328.582 176.234 329.11 176.714C329.638 177.194 330.286 177.434 331.054 177.434C332.158 177.434 332.938 176.972 333.394 176.048H335.607C335.308 176.96 334.762 177.71 333.97 178.298C333.19 178.874 332.218 179.162 331.054 179.162C330.106 179.162 329.254 178.952 328.498 178.532C327.754 178.1 327.166 177.5 326.734 176.732C326.314 175.952 326.104 175.052 326.104 174.032C326.104 173.012 326.308 172.118 326.716 171.35C327.136 170.57 327.718 169.97 328.462 169.55C329.218 169.13 330.082 168.92 331.054 168.92C331.99 168.92 332.824 169.124 333.556 169.532C334.288 169.94 334.858 170.516 335.266 171.26C335.674 171.992 335.878 172.838 335.878 173.798ZM333.736 173.15C333.724 172.394 333.454 171.788 332.926 171.332C332.398 170.876 331.744 170.648 330.964 170.648C330.256 170.648 329.65 170.876 329.146 171.332C328.642 171.776 328.342 172.382 328.246 173.15H333.736ZM341.497 179.162C340.717 179.162 340.015 179.024 339.391 178.748C338.779 178.46 338.293 178.076 337.933 177.596C337.573 177.104 337.381 176.558 337.357 175.958H339.481C339.517 176.378 339.715 176.732 340.075 177.02C340.447 177.296 340.909 177.434 341.461 177.434C342.037 177.434 342.481 177.326 342.793 177.11C343.117 176.882 343.279 176.594 343.279 176.246C343.279 175.874 343.099 175.598 342.739 175.418C342.391 175.238 341.833 175.04 341.065 174.824C340.321 174.62 339.715 174.422 339.247 174.23C338.779 174.038 338.371 173.744 338.023 173.348C337.687 172.952 337.519 172.43 337.519 171.782C337.519 171.254 337.675 170.774 337.987 170.342C338.299 169.898 338.743 169.55 339.319 169.298C339.907 169.046 340.579 168.92 341.335 168.92C342.463 168.92 343.369 169.208 344.053 169.784C344.749 170.348 345.121 171.122 345.169 172.106H343.117C343.081 171.662 342.901 171.308 342.577 171.044C342.253 170.78 341.815 170.648 341.263 170.648C340.723 170.648 340.309 170.75 340.021 170.954C339.733 171.158 339.589 171.428 339.589 171.764C339.589 172.028 339.685 172.25 339.877 172.43C340.069 172.61 340.303 172.754 340.579 172.862C340.855 172.958 341.263 173.084 341.803 173.24C342.523 173.432 343.111 173.63 343.567 173.834C344.035 174.026 344.437 174.314 344.773 174.698C345.109 175.082 345.283 175.592 345.295 176.228C345.295 176.792 345.139 177.296 344.827 177.74C344.515 178.184 344.071 178.532 343.495 178.784C342.931 179.036 342.265 179.162 341.497 179.162ZM348.34 179.126C347.968 179.126 347.656 179 347.404 178.748C347.152 178.496 347.026 178.184 347.026 177.812C347.026 177.44 347.152 177.128 347.404 176.876C347.656 176.624 347.968 176.498 348.34 176.498C348.7 176.498 349.006 176.624 349.258 176.876C349.51 177.128 349.636 177.44 349.636 177.812C349.636 178.184 349.51 178.496 349.258 178.748C349.006 179 348.7 179.126 348.34 179.126Z" fill="white"/>
 </svg>
    